#N canvas 1526 449 1445 1098 12;
#X obj 119 490 netsend -u -b;
#X msg 119 449 connect 127.0.0.1 8001, f 25;
#X text 116 423 connecter par OSC à l'ordi;
#X msg 21 78 devices;
#X msg 100 78 close;
#X msg 100 107 baud 115200 \, open 4;
#X obj 21 221 oscparse, f 10;
#X obj 20 264 list trim;
#X obj 21 138 comport;
#X obj 20 180 pdchoco/slip_parse;
#X obj 20 315 route decollage;
#X obj 20 353 nbx 5 17 -1e+37 1e+37 0 0 empty empty empty 0 -10 0 12 #fcfcfc #000000 #000000 0 256;
#X obj 20 394 oscformat -f i key;
#X connect 1 0 0 0;
#X connect 3 0 8 0;
#X connect 4 0 8 0;
#X connect 5 0 8 0;
#X connect 6 0 7 0;
#X connect 7 0 10 0;
#X connect 8 0 9 0;
#X connect 9 0 6 0;
#X connect 10 0 11 0;
#X connect 11 0 12 0;
#X connect 12 0 0 0;
